<svg width="38" height="52" viewBox="0 0 38 52" fill="none" xmlns="http://www.w3.org/2000/svg">
<g id="file-lines-solid 1" clip-path="url(#clip0_428_325)">
<path id="Vector" d="M6.33333 0.5C2.8401 0.5 0 3.35879 0 6.875V45.125C0 48.6412 2.8401 51.5 6.33333 51.5H31.6667C35.1599 51.5 38 48.6412 38 45.125V16.4375H25.3333C23.5818 16.4375 22.1667 15.0131 22.1667 13.25V0.5H6.33333ZM25.3333 0.5V13.25H38L25.3333 0.5ZM11.0833 26H26.9167C27.7875 26 28.5 26.7172 28.5 27.5938C28.5 28.4703 27.7875 29.1875 26.9167 29.1875H11.0833C10.2125 29.1875 9.5 28.4703 9.5 27.5938C9.5 26.7172 10.2125 26 11.0833 26ZM11.0833 32.375H26.9167C27.7875 32.375 28.5 33.0922 28.5 33.9688C28.5 34.8453 27.7875 35.5625 26.9167 35.5625H11.0833C10.2125 35.5625 9.5 34.8453 9.5 33.9688C9.5 33.0922 10.2125 32.375 11.0833 32.375ZM11.0833 38.75H26.9167C27.7875 38.75 28.5 39.4672 28.5 40.3438C28.5 41.2203 27.7875 41.9375 26.9167 41.9375H11.0833C10.2125 41.9375 9.5 41.2203 9.5 40.3438C9.5 39.4672 10.2125 38.75 11.0833 38.75Z" fill="#7C87AA"/>
</g>
<defs>
<clipPath id="clip0_428_325">
<rect width="38" height="51" fill="white" transform="translate(0 0.5)"/>
</clipPath>
</defs>
</svg>
